<svg id="Capa_1" enable-background="new 0 0 512 512" height="512" viewBox="0 0 512 512" width="512" xmlns="http://www.w3.org/2000/svg"><g><g><path clip-rule="evenodd" d="m373.581 276.983c9.079-22.608 24.073-43.255 32.536-63.579-3.339-36.929-19.153-72.277-58.308-91.635-25.332 34.411-36.871 64.955-53.388 136.354v55.965l38.745 20.148 32.507-20.148.293-.498c-.145-12.856 2.959-25.01 7.615-36.607z" fill="#c6d0da" fill-rule="evenodd"/></g><g><path clip-rule="evenodd" d="m130.921 480.459c15.346-52.655 58.425-143.207 3.983-203.535-38.188 0-76.465 35.963-86.978 91.752l-17.132 91.107z" fill="#918291" fill-rule="evenodd"/></g><g><path clip-rule="evenodd" d="m209.905 314.088c29.286-62.905-18.86-143.412-41.937-202.129-40.18 20.353-54.383 68.118-56.931 106.57 6.853 18.655 17.337 37.72 23.868 58.395 3.69 11.626 6.121 23.78 5.974 36.666v.498l30.896 14.379z" fill="#c6d0da" fill-rule="evenodd"/></g><g><path clip-rule="evenodd" d="m476.842 459.784-17.161-91.107c-10.484-55.789-47.911-91.693-86.1-91.693-49.785 13.735-36.226 132.81 10.162 182.801l51.396 11.978z" fill="#918291" fill-rule="evenodd"/></g><g><path clip-rule="evenodd" d="m406.118 213.404c-2.372-26.357-11.099-51.894-30.135-71.398-7.644-7.849-16.956-25.039-28.173-30.574v15.843c22.257 19.973 32.185 57.751 34.762 86.129-8.493 20.324-23.487 40.971-32.536 63.579-4.686 11.597-7.79 23.751-7.644 36.607l-.293.498h23.575l.293-.498c-.146-12.856 2.958-25.01 7.614-36.607 9.079-22.608 24.073-43.255 32.537-63.579z" fill="#a0aab7" fill-rule="evenodd"/></g><g><path clip-rule="evenodd" d="m304.76 314.088v-55.965c-31.892-15.58-60.621-13.471-94.856-.117v56.082l44.133 12.388z" fill="#ffbc85" fill-rule="evenodd"/></g><g><path clip-rule="evenodd" d="m459.681 368.676c-10.484-55.789-47.911-91.693-86.1-91.693-1.991 4.979-3.719 10.074-5.008 15.287 25.478.732 44.66 14.76 56.638 41.966 10.806 24.512 24.014 95.354 31.775 125.547h19.856z" fill="#685d68" fill-rule="evenodd"/></g><g><path clip-rule="evenodd" d="m383.744 459.784 10.953-133.044c.556-6.941-5.594-12.651-12.417-12.651h-16.605-60.915-94.856-69.026-8.493c-6.824 0-12.973 5.711-12.388 12.651l10.924 133.044 122.355 20.676z" fill="#faf8f9" fill-rule="evenodd"/></g><g><path clip-rule="evenodd" d="m257.347 413.776c18.245 0 33.034-12.007 33.034-26.826s-14.789-26.855-33.034-26.855-33.034 12.036-33.034 26.855 14.789 26.826 33.034 26.826z" fill="#e7a561" fill-rule="evenodd"/></g><g><path clip-rule="evenodd" d="m383.744 459.784 10.953-133.044c.556-6.941-5.594-12.651-12.417-12.651h-16.605-17.513c6.824 0 12.974 5.711 12.388 12.651l-10.923 133.044z" fill="#e5e1e5" fill-rule="evenodd"/></g><g><path clip-rule="evenodd" d="m290.381 386.951c0-14.819-14.789-26.855-33.034-26.855-4.012 0-7.819.586-11.363 1.64 12.974 3.602 22.316 13.618 22.316 25.391 0 11.568-9.049 21.437-21.701 25.186 3.368.937 6.97 1.464 10.748 1.464 18.245-.001 33.034-12.008 33.034-26.826z" fill="#e28424" fill-rule="evenodd"/></g><g><path clip-rule="evenodd" d="m257.347 277.335c-6.56-.322-13.237-1.845-20.705-4.539-9.518-3.456-18.538-8.551-26.738-14.789v25.303c10.338 8.581 35.992 15.023 55.291 10.514 7.614-2.753 14.936-3.719 21.788-7.204 5.857-2.987 4.949-.029 4.949 7.849v19.621h12.827v-55.965c-8.229 6.179-17.278 11.246-26.738 14.672-7.466 2.693-14.114 4.215-20.674 4.538z" fill="#f5a96c" fill-rule="evenodd"/></g><g><path clip-rule="evenodd" d="m412.502 184.968c-1.669-105.575-87.74-184.968-154.101-184.968s-152.431 79.393-154.1 184.968c-.176 11.216 2.636 22.316 6.736 33.561 2.548-38.452 16.751-75.879 56.931-96.262.322-.146.674-.322.996-.498 33.356-16.488 61.587-23.165 89.438-23.165 27.821 0 56.082 6.677 89.409 23.165 39.155 19.358 54.969 54.705 58.308 91.635 3.982-9.488 6.529-18.918 6.383-28.436z" fill="#918291" fill-rule="evenodd"/></g><g><path clip-rule="evenodd" d="m412.502 184.968c-1.669-105.575-87.74-184.968-154.101-184.968-15.521 0-32.126 4.334-48.468 12.329 6.824-1.494 13.559-2.255 20.119-2.255 54.647 0 122.706 53.915 145.93 131.932 19.036 19.504 27.763 45.041 30.135 71.398 3.984-9.488 6.531-18.918 6.385-28.436z" fill="#685d68" fill-rule="evenodd"/></g><g><path clip-rule="evenodd" d="m476.842 459.784h-93.099-252.822-100.127-8.493c-10.338 0-18.801 8.493-18.801 18.831v14.584c0 10.337 8.464 18.801 18.801 18.801h467.397c10.338 0 18.801-8.464 18.801-18.801v-14.584c0-10.338-8.464-18.831-18.801-18.831z" fill="#e7a561" fill-rule="evenodd"/></g><g><path clip-rule="evenodd" d="m508.5 493.199v-14.584c0-10.338-8.464-18.831-18.801-18.831h-12.856-19.856-9.928c10.338 0 18.801 8.493 18.801 18.831v14.584c0 10.338-8.464 18.801-18.801 18.801h42.64c10.337 0 18.801-8.464 18.801-18.801z" fill="#e28424" fill-rule="evenodd"/></g><g><path clip-rule="evenodd" d="m347.81 153.691v-42.259c-33.327-16.459-61.587-23.136-89.409-23.136-27.851 0-56.082 6.677-89.438 23.136l-.996.527v41.732l96.994 6.97z" fill="#918291" fill-rule="evenodd"/></g><g><path clip-rule="evenodd" d="m347.81 121.769c-33.327-16.488-61.587-23.165-89.409-23.165-27.851 0-56.228 6.414-89.438 23.165l-.996.498v21.935l.996-.498c33.356-16.488 61.587-23.165 89.438-23.165 19.416 0 39.155 2.958 60.475 10.836 4.686 1.728 5.945 3.104 5.945 7.673v12.036 2.606h22.989v-9.986z" fill="#685d68" fill-rule="evenodd"/></g><g><path clip-rule="evenodd" d="m347.81 183.738v-30.047h-179.842v31.921c0 4.393.556 8.932 1.64 13.559.586 2.46 1.318 4.979 2.167 7.468-.703 15.316 167.953 16.224 172.053 0 .879-2.519 1.611-5.037 2.196-7.526 1.113-4.657 1.786-9.928 1.786-15.375z" fill="#fed1a3" fill-rule="evenodd"/></g><g><path clip-rule="evenodd" d="m343.827 206.639c.879-2.519 1.611-5.037 2.196-7.526 1.113-4.656 1.786-9.928 1.786-15.375v-30.047h-22.989v27.441c0 5.447-.703 10.689-1.816 15.375-1.084 4.627-2.606 9.049-4.481 13.383 8.436-.439 16.929-1.523 25.304-3.251z" fill="#f5a96c" fill-rule="evenodd"/></g><g><path clip-rule="evenodd" d="m304.76 258.123c18.186-13.647 32.536-32.712 39.067-51.484-22.931 4.715-46.535 4.598-67.796 0-5.096-1.084-16.048-6.853-17.483-13.266-.059-.176-.264-.146-.293 0-1.435 6.414-12.417 12.183-17.483 13.266-21.261 4.598-46.066 4.715-68.997 0 6.414 18.714 20.266 37.72 38.13 51.367 8.2 6.238 17.22 11.334 26.738 14.789 7.468 2.694 14.145 4.217 20.705 4.539 6.56-.322 13.208-1.845 20.676-4.539 9.458-3.426 18.507-8.493 26.736-14.672z" fill="#918291" fill-rule="evenodd"/></g><g><path clip-rule="evenodd" d="m304.76 258.123c18.04-13.53 32.302-32.39 38.921-51.015.029-.176.088-.322.146-.469-8.376 1.728-16.868 2.811-25.303 3.251-.82 1.904-1.699 3.778-2.665 5.652-6.619 12.944-16.634 25.478-28.7 35.67-1.757 1.494-3.573 2.929-5.418 4.305-8.229 6.179-17.249 11.246-26.708 14.672-5.184 1.874-9.986 3.163-14.613 3.895 5.974 1.904 11.48 2.987 16.927 3.251 6.56-.322 13.208-1.845 20.676-4.539 9.459-3.427 18.508-8.494 26.737-14.673z" fill="#685d68" fill-rule="evenodd"/></g><g><path d="m223.559 189.404c-.542 0-1.093-.058-1.644-.178l-16.927-3.69c-4.147-.904-6.776-4.999-5.872-9.146.905-4.147 5.001-6.779 9.147-5.872l16.927 3.69c4.147.904 6.776 4.999 5.872 9.146-.785 3.595-3.968 6.05-7.503 6.05z" fill="#685d68"/></g><g><path d="m293.244 189.404c-3.537 0-6.718-2.454-7.503-6.05-.904-4.148 1.725-8.242 5.872-9.147l16.928-3.69c4.155-.902 8.243 1.727 9.147 5.872.904 4.148-1.725 8.242-5.872 9.147l-16.928 3.69c-.551.121-1.103.178-1.644.178z" fill="#685d68"/></g></g></svg>